<?xml version="1.0" standalone="no"?>
<!DOCTYPE svg PUBLIC "-//W3C//DTD SVG 20010904//EN"
 "http://www.w3.org/TR/2001/REC-SVG-20010904/DTD/svg10.dtd">
<svg version="1.0" xmlns="http://www.w3.org/2000/svg"
 width="407.000000pt" height="407.000000pt" viewBox="0 0 407.000000 407.000000"
 preserveAspectRatio="xMidYMid meet">

<g transform="translate(0.000000,407.000000) scale(0.100000,-0.100000)"
fill="#000000" stroke="none">
<path d="M1815 4058 c-435 -44 -879 -253 -1199 -566 -756 -739 -825 -1920
-159 -2742 399 -492 1023 -774 1653 -746 176 7 247 17 410 57 576 141 1058
524 1327 1054 101 199 160 379 199 610 24 139 24 449 1 603 -70 448 -259 824
-576 1143 -436 438 -1033 650 -1656 587z m1580 -942 c-36 -52 -65 -97 -65
-101 0 -4 25 -44 55 -89 182 -275 277 -622 262 -956 -36 -750 -567 -1364
-1309 -1512 -162 -32 -434 -32 -596 0 -330 66 -602 211 -838 446 -389 390
-550 930 -438 1474 37 180 133 408 236 558 l55 81 -63 91 c-35 51 -64 94 -64
97 0 3 637 5 1415 5 l1416 0 -66 -94z"/>
<path d="M2435 2540 c-121 -60 -124 -234 -5 -297 24 -13 60 -23 80 -23 87 0
170 83 170 170 0 57 -39 120 -90 147 -53 28 -102 29 -155 3z"/>
<path d="M2465 2161 c-45 -20 -70 -60 -70 -112 0 -42 5 -53 33 -81 28 -28 39
-33 82 -33 43 0 54 5 82 33 28 28 33 39 33 82 0 42 -5 54 -31 81 -33 33 -92
46 -129 30z"/>
<path d="M1553 2123 c-46 -6 -42 -25 17 -91 28 -31 50 -59 50 -63 0 -4 -30
-24 -66 -44 -86 -48 -116 -45 -226 26 -57 36 -92 52 -117 53 l-36 1 1 -51 c1
-32 11 -73 27 -107 16 -35 22 -59 16 -68 -12 -20 -11 -146 1 -170 10 -17 13
-18 38 -5 15 8 50 38 77 66 74 78 133 97 195 65 21 -11 30 -23 30 -41 0 -14 5
-34 10 -45 10 -17 22 -19 136 -19 l126 0 -6 -35 c-8 -40 8 -107 30 -130 37
-37 80 -6 141 102 34 62 35 63 77 63 92 0 289 70 303 107 18 46 -112 190 -208
233 -33 14 -62 36 -74 54 -29 44 -115 83 -208 96 -75 10 -266 11 -334 3z"/>
<path d="M2465 1815 c-14 -13 -25 -36 -25 -50 0 -14 11 -37 25 -50 13 -14 36
-25 50 -25 14 0 37 11 50 25 14 13 25 36 25 50 0 14 -11 37 -25 50 -13 14 -36
25 -50 25 -14 0 -37 -11 -50 -25z"/>
</g>
</svg>
